<mxfile host="app.diagrams.net" agent="Mozilla/5.0 (Windows NT 10.0; Win64; x64) AppleWebKit/537.36 (KHTML, like Gecko) Chrome/130.0.0.0 Safari/537.36 Edg/130.0.0.0" version="24.8.0">
  <diagram name="Page-1" id="DRHRl3ctLnnv_Q7l1HNB">
    <mxGraphModel dx="794" dy="555" grid="1" gridSize="10" guides="1" tooltips="1" connect="1" arrows="1" fold="1" page="1" pageScale="1" pageWidth="827" pageHeight="1169" math="0" shadow="0">
      <root>
        <mxCell id="0" />
        <mxCell id="1" parent="0" />
        <mxCell id="MM9DBW9aPZZkO6k7IUO1-2" value="Emploi du Temps Utopios" style="shape=rect;html=1;verticalAlign=top;fontStyle=1;whiteSpace=wrap;align=center;" vertex="1" parent="1">
          <mxGeometry x="250" y="110" width="460" height="520" as="geometry" />
        </mxCell>
        <mxCell id="MM9DBW9aPZZkO6k7IUO1-19" style="rounded=0;orthogonalLoop=1;jettySize=auto;html=1;endArrow=none;endFill=0;" edge="1" parent="1" source="MM9DBW9aPZZkO6k7IUO1-1" target="MM9DBW9aPZZkO6k7IUO1-5">
          <mxGeometry relative="1" as="geometry" />
        </mxCell>
        <mxCell id="MM9DBW9aPZZkO6k7IUO1-1" value="Formateur" style="shape=umlActor;html=1;verticalLabelPosition=bottom;verticalAlign=top;align=center;" vertex="1" parent="1">
          <mxGeometry x="170" y="180" width="30" height="60" as="geometry" />
        </mxCell>
        <mxCell id="MM9DBW9aPZZkO6k7IUO1-4" style="edgeStyle=orthogonalEdgeStyle;rounded=0;orthogonalLoop=1;jettySize=auto;html=1;endArrow=block;endFill=0;" edge="1" parent="1">
          <mxGeometry relative="1" as="geometry">
            <mxPoint x="185" y="350" as="sourcePoint" />
            <mxPoint x="185" y="270" as="targetPoint" />
          </mxGeometry>
        </mxCell>
        <mxCell id="MM9DBW9aPZZkO6k7IUO1-20" style="rounded=0;orthogonalLoop=1;jettySize=auto;html=1;endArrow=none;endFill=0;" edge="1" parent="1" source="MM9DBW9aPZZkO6k7IUO1-3" target="MM9DBW9aPZZkO6k7IUO1-10">
          <mxGeometry relative="1" as="geometry" />
        </mxCell>
        <mxCell id="MM9DBW9aPZZkO6k7IUO1-21" style="rounded=0;orthogonalLoop=1;jettySize=auto;html=1;endArrow=none;endFill=0;" edge="1" parent="1" source="MM9DBW9aPZZkO6k7IUO1-3" target="MM9DBW9aPZZkO6k7IUO1-11">
          <mxGeometry relative="1" as="geometry" />
        </mxCell>
        <mxCell id="MM9DBW9aPZZkO6k7IUO1-3" value="Référent" style="shape=umlActor;html=1;verticalLabelPosition=bottom;verticalAlign=top;align=center;" vertex="1" parent="1">
          <mxGeometry x="170" y="350" width="30" height="60" as="geometry" />
        </mxCell>
        <mxCell id="MM9DBW9aPZZkO6k7IUO1-5" value="Consulter son emploi du temps" style="ellipse;whiteSpace=wrap;html=1;" vertex="1" parent="1">
          <mxGeometry x="300" y="160" width="140" height="70" as="geometry" />
        </mxCell>
        <mxCell id="MM9DBW9aPZZkO6k7IUO1-6" value="Noter ses heures" style="ellipse;whiteSpace=wrap;html=1;" vertex="1" parent="1">
          <mxGeometry x="480" y="160" width="140" height="70" as="geometry" />
        </mxCell>
        <mxCell id="MM9DBW9aPZZkO6k7IUO1-8" value="&amp;lt;&amp;lt;include&amp;gt;&amp;gt;" style="html=1;verticalAlign=bottom;labelBackgroundColor=none;endArrow=open;endFill=0;dashed=1;rounded=0;" edge="1" parent="1" source="MM9DBW9aPZZkO6k7IUO1-6" target="MM9DBW9aPZZkO6k7IUO1-9">
          <mxGeometry width="160" relative="1" as="geometry">
            <mxPoint x="330" y="250" as="sourcePoint" />
            <mxPoint x="490" y="250" as="targetPoint" />
          </mxGeometry>
        </mxCell>
        <mxCell id="MM9DBW9aPZZkO6k7IUO1-9" value="Signer feuille" style="ellipse;whiteSpace=wrap;html=1;" vertex="1" parent="1">
          <mxGeometry x="540" y="270" width="140" height="70" as="geometry" />
        </mxCell>
        <mxCell id="MM9DBW9aPZZkO6k7IUO1-10" value="Editer le calendrier" style="ellipse;whiteSpace=wrap;html=1;" vertex="1" parent="1">
          <mxGeometry x="284" y="335" width="140" height="70" as="geometry" />
        </mxCell>
        <mxCell id="MM9DBW9aPZZkO6k7IUO1-11" value="Ajouter document" style="ellipse;whiteSpace=wrap;html=1;" vertex="1" parent="1">
          <mxGeometry x="274" y="420" width="140" height="70" as="geometry" />
        </mxCell>
        <mxCell id="MM9DBW9aPZZkO6k7IUO1-17" style="rounded=0;orthogonalLoop=1;jettySize=auto;html=1;endArrow=block;endFill=0;" edge="1" parent="1" source="MM9DBW9aPZZkO6k7IUO1-14" target="MM9DBW9aPZZkO6k7IUO1-11">
          <mxGeometry relative="1" as="geometry" />
        </mxCell>
        <mxCell id="MM9DBW9aPZZkO6k7IUO1-14" value="Document congé" style="ellipse;whiteSpace=wrap;html=1;" vertex="1" parent="1">
          <mxGeometry x="274" y="530" width="140" height="70" as="geometry" />
        </mxCell>
        <mxCell id="MM9DBW9aPZZkO6k7IUO1-18" style="rounded=0;orthogonalLoop=1;jettySize=auto;html=1;endArrow=block;endFill=0;" edge="1" parent="1" source="MM9DBW9aPZZkO6k7IUO1-16" target="MM9DBW9aPZZkO6k7IUO1-11">
          <mxGeometry relative="1" as="geometry" />
        </mxCell>
        <mxCell id="MM9DBW9aPZZkO6k7IUO1-16" value="Document repos" style="ellipse;whiteSpace=wrap;html=1;" vertex="1" parent="1">
          <mxGeometry x="440" y="530" width="140" height="70" as="geometry" />
        </mxCell>
      </root>
    </mxGraphModel>
  </diagram>
</mxfile>
